<svg xmlns="http://www.w3.org/2000/svg" width="3339" height="1000" viewBox="0 0 883.441 264.583"><defs><path id="a" d="M817.188 773.438h607.813v64.063H817.188z"/></defs><path d="M132.597 132.597s38.829 107.812 129.292 97.072c90.463-10.74 280.064-16.936 329.633-10.74 49.568 6.196 240.694 68.327 251.561 10.533l4.544-24.164" style="fill:none;stroke:#7e9e7f;stroke-width:7.9375;stroke-linecap:round;stroke-linejoin:round;stroke-miterlimit:4;stroke-dasharray:none;stroke-opacity:1"/><g transform="rotate(30.093 134.042 129.218)"><path d="M205.316 71.06c-11.18.362-33.542 1.088-46.943 10.533-13.4 9.445-17.837 27.606-20.214 37.52-2.378 9.914-2.696 11.578 7.873 11.541 10.569-.036 32.02-1.776 45.578-12.053 13.56-10.278 19.222-29.092 22.054-38.5 2.831-9.406 2.832-9.405-8.348-9.042zM55.336 83.024c3.9 10.485 11.701 31.455 24.918 41.155 13.217 9.7 31.846 8.13 42.001 7.231 10.156-.9 11.834-1.127 8.438-11.135-3.397-10.008-11.869-29.792-25.925-39.378-14.057-9.586-33.695-8.97-43.514-8.663-9.82.308-9.818.306-5.918 10.79ZM62.298 193.648c11.183-.267 33.55-.802 47.031-10.132 13.481-9.33 18.073-27.452 20.535-37.346 2.462-9.893 2.794-11.554-7.774-11.608-10.569-.054-32.034 1.502-45.68 11.664-13.646 10.16-19.47 28.926-22.382 38.309-2.911 9.382-2.913 9.38 8.27 9.113zM212.116 182.9c-3.856-10.5-11.568-31.503-24.744-41.26-13.176-9.755-31.811-8.263-41.97-7.407-10.16.857-11.839 1.078-8.485 11.1 3.354 10.023 11.743 29.842 25.759 39.487 14.016 9.644 33.657 9.112 43.477 8.845 9.82-.266 9.82-.264 5.963-10.765z" style="fill:#7e9e7f;fill-opacity:1;stroke:#7e9e7f;stroke-width:5.51699;stroke-linecap:round;stroke-linejoin:round;stroke-miterlimit:4;stroke-dasharray:none;stroke-opacity:1"/><path d="M224.103 124.44c-8.976-3.88-26.929-11.64-43.321-10.96-16.392.68-31.222 9.799-39.243 14.384-8.022 4.584-9.236 4.634-.548 8.88 8.688 4.247 27.277 12.689 44.275 11.983 16.998-.705 32.405-10.557 40.11-15.483 7.703-4.926 7.703-4.924-1.273-8.804zM40.234 129.15c8.739-4.388 26.217-13.167 42.62-13.43 16.405-.263 31.734 7.99 40.005 12.106 8.272 4.117 9.487 4.097 1.057 8.835s-26.503 14.234-43.513 14.506c-17.01.272-32.959-8.679-40.933-13.154-7.974-4.476-7.974-4.474.764-8.862zM136.602 39.238c4.25 8.807 12.753 26.42 12.758 42.827.005 16.406-8.488 31.603-12.734 39.81-4.246 8.205-4.245 9.42-8.85.917-4.605-8.503-13.816-26.724-13.82-43.736-.004-17.013 9.196-32.818 13.797-40.721 4.6-7.903 4.598-7.903 8.849.903zM136.602 142.694c4.25 8.806 12.753 26.42 12.758 42.827.005 16.406-8.487 31.603-12.734 39.809-4.246 8.206-4.245 9.42-8.85.918-4.605-8.503-13.816-26.724-13.82-43.737-.004-17.013 9.196-32.818 13.797-40.72 4.6-7.903 4.598-7.903 8.85.903z" style="fill:#d8e4ee;fill-opacity:1;stroke:#d8e4ee;stroke-width:5.51699;stroke-linecap:round;stroke-linejoin:round;stroke-miterlimit:4;stroke-dasharray:none;stroke-opacity:1"/><circle cx="128.436" cy="136.038" r="21.773" style="fill:#d7bd57;fill-opacity:1;stroke-width:3.92875;stroke-linecap:round;stroke-linejoin:round;stroke-miterlimit:4;stroke-dasharray:none;paint-order:markers stroke fill;stop-color:#000" transform="rotate(-1.646)"/></g><g style="font-size:10.5833px;line-height:1.25;font-family:&quot;Kiwi Maru&quot;;-inkscape-font-specification:&quot;Kiwi Maru&quot;;fill:#d8e4ee;stroke-width:.264583"><path d="M287.56 79.234v.283q0 1.128 1.27 1.128 1.552-.282 2.963-.282h2.963q7.197 0 11.712 1.976 4.516 1.975 6.915 5.08 2.399 3.104 3.245 6.632.988 3.528.988 6.773v1.835q0 .846-.14 1.552-.565 7.338-1.694 14.817-1.13 7.479-2.54 13.687-1.27 6.068-2.258 9.596-5.786 19.756-21.026 19.756-7.337 0-17.215-4.94-3.246-1.834-3.246-5.362 0-2.822 1.835-4.515 1.975-1.835 4.233-1.835 1.693 0 3.105.847 3.386 1.835 6.067 2.822 2.681.988 4.94.988 4.515 0 7.196-4.515 2.822-4.516 4.798-14.817 1.975-10.301 3.81-27.658.14-.564.14-1.129v-1.27q0-2.116-.846-4.092-.847-2.117-3.245-3.387-2.4-1.41-7.338-1.41-3.387 0-8.467.846-1.129.141-1.411 1.27-3.246 12.7-7.62 25.4-4.374 12.559-9.878 24.13-5.362 11.43-11.57 20.884-1.835 2.681-4.94 2.681-1.693 0-3.527-1.128-2.4-1.976-2.4-5.08 0-1.976.988-3.387 8.75-13.406 15.24-28.928 6.633-15.522 11.007-31.468v-.282q.141-.141.141-.282 0-.988-1.27-.706-2.399.141-4.939.424-2.54.14-5.22.14h-3.246q-1.694-.14-3.67-.281-2.257-.142-3.81-1.835-1.551-1.834-1.551-4.233 0-2.681 1.975-4.375 2.117-1.693 4.798-1.552 3.81.423 6.914.423 3.105 0 5.927-.282 2.963-.423 6.35-.988.988-.14 1.129-1.128 1.27-6.21 2.116-12.136.988-6.068 1.553-11.853.282-2.4 2.116-3.951 1.835-1.553 4.093-1.553 2.54 0 4.233 1.976 1.834 1.975 1.552 4.657-.564 4.797-1.411 9.877-.706 4.94-1.834 10.16zm73.377 52.917q.424.988.424 2.117 0 1.975-1.411 3.95-1.27 1.835-3.528 2.682-.565.141-.988.282h-.988q-2.116 0-3.81-1.27-1.693-1.411-2.399-3.528-2.54-9.313-6.773-17.92-4.092-8.609-9.172-15.946-4.94-7.48-10.02-12.841-1.692-1.976-1.692-4.516 0-2.822 2.116-4.657 2.117-1.693 4.798-1.693 3.104 0 5.221 2.399 3.81 4.515 7.902 10.865 4.234 6.21 8.044 13.265 3.95 7.055 7.196 13.97 3.246 6.914 5.08 12.841z" aria-label="か" style="font-size:141.111px;-inkscape-font-specification:&quot;Kiwi Maru, Normal&quot;"/></g><g style="font-size:10.5833px;line-height:1.25;font-family:&quot;Kiwi Maru&quot;;-inkscape-font-specification:&quot;Kiwi Maru&quot;;fill:#d8e4ee;stroke-width:.264583"><path d="M478.835 77.98q.424.847.424 1.834 0 2.823-2.682 4.093-.846.423-1.693.423-2.822 0-3.951-2.822-3.246-8.608-10.019-14.958-1.27-1.27-1.27-2.963 0-1.553 1.129-2.964 1.27-1.27 3.246-1.27 1.41 0 2.822 1.13 4.092 3.668 6.773 7.76 2.822 3.951 5.221 9.737zm-23.283-11.995q7.338 6.774 11.853 17.216.282.423.282.847v.846q0 3.246-2.822 4.375-.846.423-1.693.423-2.822 0-3.951-2.963-3.246-8.467-9.596-14.252-1.552-1.27-1.552-3.246 0-1.693 1.129-2.822 1.27-1.552 3.387-1.552 1.552 0 2.963 1.128zm-.847 92.57q.282-.142.706-.142h.705q2.4 0 4.234 1.693 1.975 1.694 1.975 4.234 0 2.258-1.41 4.092-1.27 1.834-3.67 2.399-23.848 5.927-40.64 5.927-28.504 0-36.124-17.498-.988-2.4-1.552-4.798-.424-2.54-.424-4.939 0-7.761 4.234-15.522 4.233-7.902 10.724-15.24.706-.988-.141-1.835l-5.786-5.362q-5.785-5.362-9.313-11.006-3.387-5.645-3.104-14.676.14-2.54 1.975-4.233 1.976-1.835 4.516-1.835 2.68 0 4.374 1.976 1.835 1.975 1.694 4.515-.142 4.093.987 7.056 1.13 2.963 4.516 6.35l3.528 3.528q2.399 2.116 5.362 4.939.847.846 1.693 0 5.927-5.504 12.136-10.302 6.35-4.938 11.994-9.03.706-.565.847-.988.14-.565-.565-.565-.564 0-1.129.141h-1.128q-2.54.424-4.516-1.27-1.976-1.693-1.976-4.233 0-2.399 1.694-4.374 1.834-1.976 4.233-2.117.988-.141 1.976-.141h1.975q4.516 0 8.89.846 4.375.706 8.467 2.4 1.693.705 2.54 2.257.988 1.552.988 3.246 0 3.245-2.823 5.22-4.092 2.964-10.018 7.197-5.786 4.093-12.277 9.031-6.491 4.94-12.559 10.584-.988.846 0 1.693 5.503 5.08 10.583 9.878 5.221 4.657 8.608 7.761 1.976 1.693 1.976 4.516 0 2.257-1.694 4.233-1.693 2.117-4.515 2.117-2.4 0-4.234-1.835l-19.473-17.921q-.988-.988-1.834.141-5.08 5.645-8.185 11.289-3.104 5.644-3.104 11.007 0 7.479 6.491 11.289 6.632 3.81 19.191 3.81 15.099 0 38.382-5.504z" aria-label="ど" style="font-size:141.111px;-inkscape-font-specification:&quot;Kiwi Maru, Normal&quot;"/></g><g style="font-size:10.5833px;line-height:1.25;font-family:&quot;Kiwi Maru&quot;;-inkscape-font-specification:&quot;Kiwi Maru&quot;;fill:#d8e4ee;stroke-width:.264583"><path d="M543.375 189.91q.423-.142.847-.142.423-.14.846-.14 2.4 0 4.093 1.692 1.834 1.553 1.834 4.375 0 2.258-1.411 4.233-1.27 1.976-3.669 2.54-3.104.847-6.35 1.13-3.104.422-6.35.422-11.148 0-21.026-4.797-9.877-4.798-15.945-13.547-2.963-4.233-4.657-9.878-1.693-5.644-1.693-12.135 0-9.314 4.233-19.615 4.234-10.3 14.535-20.179.423-.423.423-.846 0-.706-.988-.565-11.994 1.27-24.694 1.27-10.584 0-21.167-.846-2.399-.142-4.092-1.976-1.552-1.834-1.552-4.233 0-2.823 2.116-4.657 2.117-1.834 4.798-1.552 10.16.846 20.038.846 16.933 0 32.314-2.398 15.381-2.54 28.928-7.48 1.129-.423 2.117-.423 2.399 0 4.374 1.835 2.117 1.693 2.117 4.515 0 1.835-.988 3.528-.988 1.552-2.963 2.258-7.902 2.822-16.228 4.939-.706.14-1.552.564-14.252 9.172-22.155 21.026-7.902 11.712-7.902 23 0 9.455 5.645 16.934 5.08 6.491 11.712 9.172 6.632 2.682 13.264 2.682 5.645 0 11.148-1.553zm24.271-51.083q.423.847.423 1.835 0 2.822-2.68 4.092-.847.423-1.694.423-2.822 0-3.951-2.822-3.246-8.608-10.019-14.958-1.27-1.27-1.27-2.963 0-1.552 1.129-2.964 1.27-1.27 3.245-1.27 1.412 0 2.823 1.13 4.092 3.668 6.773 7.76 2.822 3.952 5.221 9.737zm-23.283-11.994q7.338 6.773 11.853 17.215.282.424.282.847v.847q0 3.245-2.822 4.374-.847.423-1.693.423-2.822 0-3.951-2.963-3.246-8.467-9.596-14.252-1.552-1.27-1.552-3.246 0-1.693 1.129-2.822 1.27-1.552 3.386-1.552 1.553 0 2.964 1.129z" aria-label="で" style="font-size:141.111px;-inkscape-font-specification:&quot;Kiwi Maru, Normal&quot;"/></g><g style="font-size:10.5833px;line-height:1.25;font-family:&quot;Kiwi Maru&quot;;-inkscape-font-specification:&quot;Kiwi Maru&quot;;fill:#d8e4ee;stroke-width:.264583"><path d="M738.454 99.67H703.6q-2.4 0-4.234-1.693-1.834-1.835-1.834-4.375 0-2.399 1.693-4.233 1.835-1.834 4.375-1.834h34.854q2.54 0 4.233 1.834 1.835 1.834 1.835 4.233 0 2.4-1.835 4.234-1.693 1.834-4.233 1.834zm55.598 107.103h-18.345q-13.405 0-19.05-5.08-5.644-4.939-5.644-17.074v-38.665q0-3.81 2.68-6.49 2.823-2.823 6.633-2.823h34.008q.847 0 .847-.847v-33.302q0-.846-.847-.846h-40.076q-2.399 0-4.233-1.694-1.834-1.834-1.834-4.374 0-2.399 1.693-4.233 1.834-1.835 4.374-1.835h43.886q3.81 0 6.491 2.822 2.822 2.681 2.822 6.491v40.5q0 3.81-2.822 6.631-2.681 2.682-6.491 2.682h-34.008q-.847 0-.847.846v35.137q0 5.08 1.553 7.338 1.552 2.257 6.35 2.822 4.797.423 14.393.423 6.209 0 9.596-.14 3.527-.283 5.644-1.13 2.258-.988 4.516-2.963 1.693-1.552 4.374-1.552 2.681 0 4.233 1.552 1.835 1.693 1.835 4.233 0 2.54-1.835 4.234-4.374 3.95-9.03 5.644-4.657 1.693-10.866 1.693zm-51.224-88.194h-43.603q-2.399 0-4.233-1.693-1.694-1.835-1.694-4.234 0-2.54 1.694-4.233 1.834-1.834 4.233-1.834h43.603q2.54 0 4.234 1.834 1.834 1.693 1.834 4.233 0 2.4-1.834 4.234-1.835 1.693-4.234 1.693zm-5.08 19.05h-33.443q-2.399 0-4.233-1.693-1.835-1.835-1.835-4.375 0-2.399 1.694-4.233 1.834-1.835 4.374-1.835h33.443q2.54 0 4.234 1.835 1.834 1.834 1.834 4.233 0 2.54-1.834 4.375-1.694 1.693-4.234 1.693zm0 18.909h-33.443q-2.399 0-4.233-1.694-1.835-1.834-1.835-4.374 0-2.399 1.694-4.092 1.834-1.835 4.374-1.835h33.443q2.54 0 4.234 1.835 1.834 1.693 1.834 4.092 0 2.399-1.834 4.233-1.694 1.835-4.234 1.835zm-3.245 50.518H707.55q-3.81 0-6.633-2.823-2.68-2.68-2.68-6.49v-24.977q0-3.81 2.68-6.492 2.823-2.822 6.633-2.822h26.952q3.669 0 6.49 2.681 2.823 2.681 2.823 6.633v24.976q0 3.67-2.822 6.491-2.681 2.823-6.491 2.823zM711.36 174.74q-.847 0-.847.847v19.19q0 .848.847.848h19.332q.846 0 .846-.847v-19.191q0-.847-.846-.847z" aria-label="記" style="font-size:141.111px;-inkscape-font-specification:&quot;Kiwi Maru, Normal&quot;"/></g><g style="font-size:10.5833px;line-height:1.25;font-family:&quot;Kiwi Maru&quot;;-inkscape-font-specification:&quot;Kiwi Maru&quot;;fill:#d8e4ee;stroke-width:.264583"><path d="M594.666 53.332h67.733q3.81 0 6.491 2.822 2.823 2.68 2.823 6.49V158.6q0 3.81-2.682 6.491-2.68 2.823-6.632 2.823h-67.733q-3.81 0-6.632-2.681-2.681-2.682-2.681-6.633V62.645q0-3.81 2.68-6.491 2.682-2.822 6.633-2.822zm63.923 48.4q.847 0 .847-.846V66.455q0-.847-.847-.847h-60.113q-.847 0-.847.847v34.43q0 .848.847.848zm-60.113 12.136q-.847 0-.847.847v40.216q0 .847.847.847h60.113q.847 0 .847-.847v-40.216q0-.847-.847-.847z" aria-label="日" style="font-size:141.111px;-inkscape-font-specification:&quot;Kiwi Maru, Normal&quot;"/></g></svg>