<svg xmlns="http://www.w3.org/2000/svg" width="1000" height="1000" viewBox="0 0 264.583 264.583"><defs><path id="a" d="M817.188 773.438h607.813v64.063H817.188z"/></defs><path d="M992.543 998.01c-99.958 99.566-1227.288 399.26-1363.494 362.476-136.205-36.784-959.412-863.233-995.66-999.583-36.247-136.349 267.876-1262.492 367.834-1362.058 99.958-99.566 1227.288-399.259 1363.494-362.475 136.206 36.783 959.412 863.233 995.66 999.582C1396.624-227.698 1092.5 898.444 992.543 998.01z" style="fill:#2f3437;fill-opacity:1;stroke:none;stroke-width:43.59144161;stroke-linecap:round;stroke-linejoin:round;paint-order:stroke fill markers;stop-color:#000;stroke-miterlimit:4;stroke-dasharray:none" transform="matrix(.08641 .03073 -.03076 .0865 135.194 132.095)"/><g transform="rotate(30.093 134.042 129.218)"><path d="M205.316 71.06c-11.18.362-33.542 1.088-46.943 10.533-13.4 9.445-17.837 27.606-20.214 37.52-2.378 9.914-2.696 11.578 7.873 11.541 10.569-.036 32.02-1.776 45.578-12.053 13.56-10.278 19.222-29.092 22.054-38.5 2.831-9.406 2.832-9.405-8.348-9.042zM55.336 83.024c3.9 10.485 11.701 31.455 24.918 41.155 13.217 9.7 31.846 8.13 42.001 7.231 10.156-.9 11.834-1.127 8.438-11.135-3.397-10.008-11.869-29.792-25.925-39.378-14.057-9.586-33.695-8.97-43.514-8.663-9.82.308-9.818.306-5.918 10.79ZM62.298 193.648c11.183-.267 33.55-.802 47.031-10.132 13.481-9.33 18.073-27.452 20.535-37.346 2.462-9.893 2.794-11.554-7.774-11.608-10.569-.054-32.034 1.502-45.68 11.664-13.646 10.16-19.47 28.926-22.382 38.309-2.911 9.382-2.913 9.38 8.27 9.113zM212.116 182.9c-3.856-10.5-11.568-31.503-24.744-41.26-13.176-9.755-31.811-8.263-41.97-7.407-10.16.857-11.839 1.078-8.485 11.1 3.354 10.023 11.743 29.842 25.759 39.487 14.016 9.644 33.657 9.112 43.477 8.845 9.82-.266 9.82-.264 5.963-10.765z" style="fill:#7e9e7f;fill-opacity:1;stroke:#7e9e7f;stroke-width:5.51699;stroke-linecap:round;stroke-linejoin:round;stroke-miterlimit:4;stroke-dasharray:none;stroke-opacity:1"/><path d="M224.103 124.44c-8.976-3.88-26.929-11.64-43.321-10.96-16.392.68-31.222 9.799-39.243 14.384-8.022 4.584-9.236 4.634-.548 8.88 8.688 4.247 27.277 12.689 44.275 11.983 16.998-.705 32.405-10.557 40.11-15.483 7.703-4.926 7.703-4.924-1.273-8.804zM40.234 129.15c8.739-4.388 26.217-13.167 42.62-13.43 16.405-.263 31.734 7.99 40.005 12.106 8.272 4.117 9.487 4.097 1.057 8.835s-26.503 14.234-43.513 14.506c-17.01.272-32.959-8.679-40.933-13.154-7.974-4.476-7.974-4.474.764-8.862zM136.602 39.238c4.25 8.807 12.753 26.42 12.758 42.827.005 16.406-8.488 31.603-12.734 39.81-4.246 8.205-4.245 9.42-8.85.917-4.605-8.503-13.816-26.724-13.82-43.736-.004-17.013 9.196-32.818 13.797-40.721 4.6-7.903 4.598-7.903 8.849.903zM136.602 142.694c4.25 8.806 12.753 26.42 12.758 42.827.005 16.406-8.487 31.603-12.734 39.809-4.246 8.206-4.245 9.42-8.85.918-4.605-8.503-13.816-26.724-13.82-43.737-.004-17.013 9.196-32.818 13.797-40.72 4.6-7.903 4.598-7.903 8.85.903z" style="fill:#d8e4ee;fill-opacity:1;stroke:#d8e4ee;stroke-width:5.51699;stroke-linecap:round;stroke-linejoin:round;stroke-miterlimit:4;stroke-dasharray:none;stroke-opacity:1"/><circle cx="128.436" cy="136.038" r="21.773" style="fill:#d7bd57;fill-opacity:1;stroke-width:3.92875;stroke-linecap:round;stroke-linejoin:round;stroke-miterlimit:4;stroke-dasharray:none;paint-order:markers stroke fill;stop-color:#000" transform="rotate(-1.646)"/></g></svg>