<?xml version="1.0" encoding="UTF-8" standalone="no"?><svg xmlns:svg="http://www.w3.org/2000/svg" xmlns="http://www.w3.org/2000/svg" version="1.1" style="overflow:visible" viewBox="-150 -150 300 300" height="1200px" width="1200px"><rect fill-opacity="0" fill="rgb(0,0,0)" height="300" width="300" y="-150" x="-150" /><svg version="1.1" y="-250" x="-250" viewBox="-250 -250 500 500" height="500px" width="500px" style="overflow:visible"><g transform="rotate(0,0,0)" stroke-linejoin="round" fill="#fff"><path stroke-linecap="butt" stroke-linejoin="round" stroke="none" fill="rgb(75,137,150)" d="m16.25051-124.54572l-42.198549 6.672595l-4.376664 27.34932l-5.576171 122.69262l125.8282 7.703023l26.516571-7.244708l14.387473-39.647031l-33.925198-27.089103l8.922606-36.221145l-27.907819-29.484387l-37.59725 7.061127z" /><path stroke-linecap="butt" stroke-linejoin="round" stroke="none" fill="rgb(75,137,150)" d="m-50.77717 51.891149l-0.5158 39.291897l25.17187 29.160051l34.294904 4.202891l34.885597-31.552029l36.23279 8.105076l21.006047-24.197049l-10.370013-37.032072l-15.069659-9.809685z" /><path stroke-linecap="butt" stroke-linejoin="round" stroke="none" fill="rgb(75,137,150)" d="m-82.74241-96.20721l-25.672763 25.393038l11.195577 27.02481l-11.371797 22.527954l-22.239142 13.635771l0.442152 30.24468l28.833507 11.929613l-4.003603 31.883151l21.116407 27.855921l33.148049-3.104865l5.593774-21.913386l21.982377-124.49178l-6.609176-35.302251l-24.842748 12.318156z" /><path stroke-linecap="butt" stroke-linejoin="round" stroke="none" fill="rgb(75,137,150)" d="m-13.92049-65.78766l-9.797031 10.564758l-18.609366 1.966974l-11.764821 15.303386l-20.506935 1.790364l-8.846209 23.004887l10.689523 18.771033l-3.491987 16.97457l16.98387 8.87226l-4.32362 23.500266l17.886864 14.30889l24.23915-2.126837l25.271283 13.49544l29.560282-7.362167l11.127225-22.037188l20.627085-3.07251l9.732862-18.106266l4.734595-36.535563l-14.615403-17.820819l0.651898-20.054718l-14.007443-12.956475l-25.416709 1.733353l-15.718379-18.28566z" /><path stroke-linecap="butt" stroke-linejoin="round" stroke-width="11" stroke-opacity="1" stroke="rgb(138,135,114)" fill="none" d="m-55.16932-78.2043l-27.573713-18.003171l-25.673296 25.394082l11.19531 27.02568l-11.372242 22.525692l-22.237006 13.636728l0.439998 30.246419l28.833507 11.926743l-4.003309 31.884456l21.116585 27.854355l33.150185-3.103291l25.170357 29.159703l34.29526 4.203091l34.887377-31.551855l36.232968 8.105668l21.003555-24.196527l-10.370102-37.032246l26.516927-7.244142l14.386671-39.647553l-33.923418-27.087537l8.919936-36.223929l-27.906929-29.482821l-37.595114 7.061502l-24.076815-31.793019l-42.197837 6.673074l-4.376709 27.348798z" /></g></svg></svg>